<?xml version="1.0" encoding="UTF-8"?>
<!-- Generator: visioncortex VTracer 0.6.3 -->
<svg version="1.1" xmlns="http://www.w3.org/2000/svg" width="1280" height="1280">
<path d="M0 0 C0.99 -0 1.97 -0.01 2.99 -0.01 C4.62 -0.01 4.62 -0.01 6.29 -0.01 C7.43 -0.01 8.57 -0.02 9.75 -0.02 C13.55 -0.03 17.34 -0.03 21.14 -0.03 C23.77 -0.04 26.4 -0.04 29.03 -0.04 C34.55 -0.05 40.08 -0.05 45.6 -0.05 C51.98 -0.05 58.36 -0.06 64.74 -0.08 C70.88 -0.09 77.01 -0.1 83.15 -0.09 C85.76 -0.1 88.37 -0.1 90.98 -0.11 C94.64 -0.12 98.29 -0.12 101.94 -0.11 C103.02 -0.11 104.1 -0.12 105.22 -0.13 C110.35 -0.1 114.64 0.06 119.44 2.13 C119.44 2.79 119.44 3.45 119.44 4.13 C120.16 4.21 120.89 4.3 121.63 4.38 C129.46 6.48 136.33 15.37 140.44 22.13 C146.19 33.48 147.18 45.19 144.75 57.71 C140.78 69.17 132.73 79.18 125.7 88.94 C122.51 93.45 119.83 98.15 117.44 103.13 C116.78 103.13 116.12 103.13 115.44 103.13 C115.33 103.7 115.22 104.26 115.1 104.84 C114.35 107.45 113.23 109.53 111.88 111.88 C111.42 112.68 110.97 113.48 110.5 114.31 C109.97 115.21 109.97 115.21 109.44 116.13 C108.78 116.13 108.12 116.13 107.44 116.13 C107.26 116.99 107.26 116.99 107.07 117.87 C106.41 120.23 105.5 122.21 104.38 124.38 C104.02 125.09 103.65 125.8 103.28 126.52 C103 127.06 102.73 127.59 102.44 128.13 C101.78 128.13 101.12 128.13 100.44 128.13 C100.31 129.17 100.31 129.17 100.18 130.23 C99.25 133.87 97.58 136.47 95.57 139.63 C94.87 140.74 94.17 141.84 93.45 142.98 C92.79 144.02 92.12 145.06 91.44 146.13 C89.39 149.36 87.83 152.55 86.37 156.08 C84.37 160.5 81.92 164.7 79.57 168.95 C72.76 181.17 72.76 181.17 66.84 193.83 C65.37 197.29 63.72 200.6 62 203.95 C59.56 208.76 57.39 213.6 55.47 218.64 C54.27 221.55 52.87 224.33 51.44 227.13 C49.19 231.55 47.22 235.96 45.43 240.58 C44.33 243.41 43.17 246.21 42 249.01 C41.58 250.02 41.16 251.02 40.73 252.06 C40.3 253.08 39.88 254.09 39.44 255.13 C38.61 257.13 37.77 259.13 36.94 261.13 C36.53 262.12 36.12 263.1 35.7 264.11 C34.84 266.18 33.98 268.24 33.12 270.31 C27.64 283.48 27.64 283.48 24.94 289.45 C23.82 292.19 22.94 294.74 22.13 297.57 C20.77 302.24 19.15 306.77 17.44 311.32 C17.07 312.32 17.07 312.32 16.69 313.34 C15.49 316.5 14.24 319.6 12.87 322.7 C11.46 326.09 10.45 329.4 9.5 332.95 C8.1 338 6.45 342.77 4.44 347.6 C1.62 354.76 -0.31 362.27 -2.47 369.65 C-2.68 370.39 -2.9 371.12 -3.12 371.88 C-3.34 372.61 -3.55 373.35 -3.77 374.1 C-5.45 379.81 -7.23 385.48 -9.27 391.07 C-11.4 397.09 -12.82 403.23 -14.2 409.46 C-15.46 415.03 -15.46 415.03 -16.56 416.13 C-16.7 417.16 -16.85 418.2 -17 419.26 C-17.66 423.84 -18.69 428.13 -20.53 432.38 C-21.78 435.74 -22.41 439.05 -23.06 442.57 C-23.93 447.26 -25.05 451.62 -26.56 456.13 C-27.09 458.61 -27.59 461.09 -28.06 463.57 C-28.76 467.3 -29.5 470.93 -30.56 474.57 C-31.89 479.3 -32.64 484.06 -33.42 488.91 C-33.95 492.08 -34.52 495.01 -35.56 498.07 C-36.9 502.18 -37.45 506.3 -38.06 510.57 C-38.87 516.26 -39.96 521.6 -41.56 527.13 C-41.8 529.07 -41.99 531 -42.12 532.95 C-42.46 537.93 -42.46 537.93 -43.56 540.13 C-43.93 542.44 -44.25 544.75 -44.56 547.07 C-45.45 553.81 -45.45 553.81 -46.56 557.13 C-46.74 558.92 -46.88 560.71 -47 562.51 C-47.64 570.79 -48.84 578.96 -50.62 587.07 C-51.68 592.14 -51.96 597.19 -52.28 602.36 C-52.57 606.32 -53 610.25 -53.5 614.2 C-53.63 615.21 -53.63 615.21 -53.76 616.25 C-54.29 620.31 -54.93 624.35 -55.62 628.38 C-56.67 634.87 -56.95 641.34 -57.13 647.89 C-57.33 653.51 -58.16 658.7 -59.56 664.13 C-58.9 664.13 -58.24 664.13 -57.56 664.13 C-57.56 665.12 -57.56 666.11 -57.56 667.13 C-56.9 667.13 -56.24 667.13 -55.56 667.13 C-53.61 669.25 -53.61 669.25 -51.43 672.01 C-50.71 672.91 -49.99 673.82 -49.24 674.75 C-47.56 677.13 -47.56 677.13 -47.56 679.13 C-46.57 679.46 -45.58 679.79 -44.56 680.13 C-42.59 682.28 -42.59 682.28 -40.5 684.95 C-39.8 685.82 -39.11 686.69 -38.4 687.59 C-36.85 689.73 -35.64 691.73 -34.56 694.13 C-33.9 694.13 -33.24 694.13 -32.56 694.13 C-27.56 699.61 -27.56 699.61 -27.56 702.13 C-26.57 702.46 -25.58 702.79 -24.56 703.13 C-24.56 703.79 -24.56 704.45 -24.56 705.13 C-23.9 705.13 -23.24 705.13 -22.56 705.13 C-21.13 706.59 -21.13 706.59 -19.45 708.61 C-15.59 713.15 -11.47 717.37 -7.25 721.57 C-6.17 722.65 -6.17 722.65 -5.08 723.75 C-4.4 724.43 -3.71 725.11 -3.01 725.82 C-2.39 726.43 -1.78 727.05 -1.14 727.68 C0.39 729.23 0.39 729.23 2.44 730.13 C2.44 730.79 2.44 731.45 2.44 732.13 C3.1 732.13 3.76 732.13 4.44 732.13 C6.07 733.51 6.07 733.51 7.44 735.13 C7.44 735.79 7.44 736.45 7.44 737.13 C8.1 737.13 8.76 737.13 9.44 737.13 C9.44 737.79 9.44 738.45 9.44 739.13 C10.43 739.46 11.42 739.79 12.44 740.13 C12.44 740.79 12.44 741.45 12.44 742.13 C13.08 742.4 13.72 742.67 14.38 742.95 C16.44 744.13 16.44 744.13 17.44 747.13 C18.27 747.54 18.27 747.54 19.12 747.96 C22.49 749.67 24.89 752.3 27.52 754.95 C28.09 755.52 28.66 756.09 29.25 756.67 C30.45 757.87 31.65 759.08 32.85 760.28 C34.69 762.13 36.54 763.97 38.39 765.81 C39.56 766.98 40.73 768.15 41.89 769.32 C42.45 769.87 43.01 770.43 43.58 770.99 C47.44 774.9 47.44 774.9 47.44 777.13 C48.1 777.13 48.76 777.13 49.44 777.13 C52.58 780.33 52.95 783.13 53.25 787.51 C53.34 788.61 53.43 789.71 53.52 790.84 C53.39 796.17 51.87 800.08 48.44 804.13 C49.24 804.92 50.05 805.7 50.88 806.51 C53.44 809.13 53.44 809.13 54.44 811.13 C56.28 813.19 56.28 813.19 58.44 814.13 C58.89 814.89 59.33 815.65 59.8 816.43 C61.51 819.26 63.34 821.13 65.75 823.38 C69.57 827.08 72.44 830.82 75.15 835.38 C76.41 837.44 76.41 837.44 79.44 838.13 C80.78 837.83 82.11 837.49 83.44 837.13 C90.77 836.46 96.85 836.24 102.92 840.77 C104.77 842.43 106.26 843.92 107.44 846.13 C107.44 847.12 107.44 848.11 107.44 849.13 C108.1 849.13 108.76 849.13 109.44 849.13 C114.3 855.92 118.24 863.4 121.87 870.91 C123.02 873.28 124.2 875.62 125.41 877.95 C129.84 886.52 133.37 894.98 136.44 904.13 C136.97 905.51 137.52 906.89 138.07 908.26 C146.1 929.65 149.09 959.76 143.44 982.13 C143.29 984.24 143.17 986.34 143.07 988.45 C141.84 1006.63 137.19 1027.18 129.47 1043.79 C128.35 1046.35 127.42 1048.93 126.5 1051.57 C124.88 1056.13 122.94 1060.39 120.71 1064.68 C119.88 1066.29 119.07 1067.92 118.29 1069.56 C113.65 1079.32 108.3 1088.7 99.44 1095.13 C96.26 1096.19 93.9 1096.3 90.57 1096.32 C89.54 1096.34 88.51 1096.35 87.45 1096.36 C84.39 1096.13 82.21 1095.43 79.44 1094.13 C79.44 1092.81 79.44 1091.49 79.44 1090.13 C79.11 1090.46 78.78 1090.79 78.44 1091.13 C78.53 1092.31 78.53 1092.31 78.63 1093.51 C78.44 1096.13 78.44 1096.13 76.44 1097.95 C75.78 1098.34 75.12 1098.73 74.44 1099.13 C74.44 1098.47 74.44 1097.81 74.44 1097.13 C73.45 1097.79 72.46 1098.45 71.44 1099.13 C72.1 1099.79 72.76 1100.45 73.44 1101.13 C72.12 1102.12 70.8 1103.11 69.44 1104.13 C69.44 1103.47 69.44 1102.81 69.44 1102.13 C68.45 1102.13 67.46 1102.13 66.44 1102.13 C67.1 1103.45 67.76 1104.77 68.44 1106.13 C67.12 1107.12 65.8 1108.11 64.44 1109.13 C64.44 1108.47 64.44 1107.81 64.44 1107.13 C63.45 1107.13 62.46 1107.13 61.44 1107.13 C61.44 1108.12 61.44 1109.11 61.44 1110.13 C62.1 1110.46 62.76 1110.79 63.44 1111.13 C62.12 1112.12 60.8 1113.11 59.44 1114.13 C58.45 1113.47 57.46 1112.81 56.44 1112.13 C56.44 1113.12 56.44 1114.11 56.44 1115.13 C57.1 1115.46 57.76 1115.79 58.44 1116.13 C56.84 1117.76 55.23 1119.39 53.63 1121.01 C52.73 1121.91 51.84 1122.82 50.92 1123.75 C48.44 1126.13 48.44 1126.13 45.44 1128.13 C45.44 1128.79 45.44 1129.45 45.44 1130.13 C46.1 1130.13 46.76 1130.13 47.44 1130.13 C48.99 1143.04 48.99 1143.04 46.44 1148.13 C45.97 1149.1 45.49 1150.07 45 1151.07 C41.26 1155.55 36.56 1158.39 31.44 1161.13 C30.78 1161.13 30.12 1161.13 29.44 1161.13 C29.44 1161.79 29.44 1162.45 29.44 1163.13 C28.77 1163.46 28.1 1163.79 27.41 1164.13 C20.37 1167.62 13.41 1171.24 6.49 1174.97 C2.22 1177.26 -2.08 1179.29 -6.56 1181.13 C-6.74 1186.43 -6.4 1190.12 -4.56 1195.13 C-2.47 1202.26 -2.22 1209.18 -2.25 1216.57 C-2.23 1217.64 -2.21 1218.71 -2.2 1219.81 C-2.19 1228.83 -3.88 1236.51 -8.12 1244.51 C-8.54 1245.3 -8.95 1246.09 -9.38 1246.91 C-9.77 1247.64 -10.16 1248.38 -10.56 1249.13 C-11.23 1250.47 -11.9 1251.8 -12.56 1253.13 C-13.22 1253.13 -13.88 1253.13 -14.56 1253.13 C-14.81 1253.87 -15.05 1254.6 -15.31 1255.36 C-20.15 1266.1 -33.96 1273.99 -44.56 1278.13 C-48.18 1278.45 -48.18 1278.45 -50.56 1278.13 C-50.56 1278.79 -50.56 1279.45 -50.56 1280.13 C-75.06 1280.2 -99.57 1280.26 -124.07 1280.29 C-135.45 1280.3 -146.83 1280.33 -158.21 1280.36 C-168.12 1280.39 -178.04 1280.41 -187.96 1280.42 C-193.21 1280.42 -198.46 1280.43 -203.71 1280.45 C-208.66 1280.47 -213.6 1280.48 -218.54 1280.47 C-220.36 1280.47 -222.17 1280.48 -223.98 1280.49 C-226.46 1280.51 -228.94 1280.5 -231.42 1280.49 C-232.13 1280.5 -232.85 1280.51 -233.58 1280.52 C-238.9 1280.47 -242.73 1279.18 -247.56 1277.13 C-248.54 1276.72 -249.53 1276.31 -250.54 1275.88 C-262.99 1269.99 -272.17 1261.72 -279.56 1250.13 C-280.19 1249.16 -280.19 1249.16 -280.83 1248.16 C-286.63 1238.6 -288.95 1228.15 -288.93 1217.07 C-288.93 1216.15 -288.93 1215.23 -288.93 1214.29 C-288.8 1206.03 -287.03 1199.01 -284.56 1191.13 C-283.81 1187.81 -283.16 1184.48 -282.56 1181.13 C-283.13 1180.96 -283.7 1180.79 -284.28 1180.62 C-289.52 1178.97 -293.84 1176.93 -298.56 1174.13 C-300.26 1173.41 -301.97 1172.68 -303.68 1171.96 C-306.76 1170.61 -309.72 1169.04 -312.68 1167.45 C-313.32 1167.1 -313.96 1166.76 -314.62 1166.41 C-327.86 1159.23 -327.86 1159.23 -333.56 1155.13 C-333.56 1154.47 -333.56 1153.81 -333.56 1153.13 C-334.55 1153.13 -335.54 1153.13 -336.56 1153.13 C-336.56 1152.47 -336.56 1151.81 -336.56 1151.13 C-337.74 1150.67 -337.74 1150.67 -338.93 1150.2 C-341.56 1149.13 -341.56 1149.13 -343.56 1148.13 C-343.56 1147.47 -343.56 1146.81 -343.56 1146.13 C-344.36 1145.76 -344.36 1145.76 -345.18 1145.38 C-348.14 1143.83 -350.86 1142.1 -353.56 1140.13 C-353.56 1139.47 -353.56 1138.81 -353.56 1138.13 C-354.43 1137.73 -354.43 1137.73 -355.31 1137.32 C-357.62 1136.1 -359.58 1134.83 -361.56 1133.13 C-361.56 1132.47 -361.56 1131.81 -361.56 1131.13 C-362.22 1131.13 -362.88 1131.13 -363.56 1131.13 C-365.18 1129.76 -365.18 1129.76 -366.56 1128.13 C-366.56 1127.47 -366.56 1126.81 -366.56 1126.13 C-367.52 1125.73 -367.52 1125.73 -368.5 1125.32 C-370.56 1124.13 -370.56 1124.13 -371.56 1121.13 C-372.22 1121.13 -372.88 1121.13 -373.56 1121.13 C-375.25 1119.49 -375.25 1119.49 -377.12 1117.32 C-377.74 1116.61 -378.36 1115.91 -379 1115.18 C-380.56 1113.13 -380.56 1113.13 -381.56 1110.13 C-382.22 1110.13 -382.88 1110.13 -383.56 1110.13 C-384.85 1108.67 -384.85 1108.67 -386.18 1106.76 C-386.85 1105.82 -386.85 1105.82 -387.54 1104.86 C-388.56 1103.13 -388.56 1103.13 -388.56 1101.13 C-389.22 1101.13 -389.88 1101.13 -390.56 1101.13 C-411.96 1074.31 -426.88 1039.41 -432.09 1005.64 C-432.44 1003.15 -432.44 1003.15 -433.56 1001.13 C-433.76 999.16 -433.93 997.18 -434.06 995.2 C-434.28 991.9 -434.51 989.27 -435.56 986.13 C-436.87 977.33 -436.78 968.36 -436.8 959.48 C-436.81 957.1 -436.84 954.72 -436.87 952.33 C-436.97 938.3 -435.37 924.5 -431.12 911.07 C-430.8 910.02 -430.8 910.02 -430.47 908.94 C-429.1 904.54 -427.5 900.35 -425.5 896.2 C-424.46 893.92 -423.71 891.63 -422.93 889.26 C-420.08 881.15 -415.73 873.69 -411.64 866.16 C-410.58 864.17 -409.56 862.16 -408.56 860.13 C-407.9 860.13 -407.24 860.13 -406.56 860.13 C-406.31 859.44 -406.06 858.75 -405.81 858.04 C-404.37 854.7 -402.54 851.73 -400.56 848.7 C-400.17 848.1 -399.78 847.5 -399.38 846.88 C-396.37 842.29 -393.28 837.75 -390.12 833.26 C-389.48 832.34 -389.48 832.34 -388.84 831.4 C-387.79 829.94 -386.68 828.53 -385.56 827.13 C-384.9 827.13 -384.24 827.13 -383.56 827.13 C-383.31 826.42 -383.06 825.7 -382.81 824.97 C-381.42 821.82 -379.71 819.5 -377.56 816.82 C-376.86 815.94 -376.16 815.06 -375.43 814.15 C-374.82 813.48 -374.2 812.82 -373.56 812.13 C-372.9 812.13 -372.24 812.13 -371.56 812.13 C-371.2 811.32 -371.2 811.32 -370.84 810.49 C-369.22 807.5 -367.21 805.02 -365.06 802.38 C-363.87 800.91 -363.87 800.91 -362.65 799.4 C-361.96 798.65 -361.27 797.9 -360.56 797.13 C-359.9 797.13 -359.24 797.13 -358.56 797.13 C-358.16 796.17 -358.16 796.17 -357.75 795.2 C-356.56 793.13 -356.56 793.13 -353.56 792.13 C-352.87 790.81 -352.21 789.47 -351.56 788.13 C-346.19 781.39 -346.19 781.39 -343.56 779.13 C-342.9 779.13 -342.24 779.13 -341.56 779.13 C-341.16 778.17 -341.16 778.17 -340.75 777.2 C-339.56 775.13 -339.56 775.13 -336.56 774.13 C-336.56 773.47 -336.56 772.81 -336.56 772.13 C-335.18 770.51 -335.18 770.51 -333.56 769.13 C-332.9 769.13 -332.24 769.13 -331.56 769.13 C-331.16 768.17 -331.16 768.17 -330.75 767.2 C-329.56 765.13 -329.56 765.13 -326.56 764.13 C-326.23 763.47 -325.9 762.81 -325.56 762.13 C-324.56 760.13 -324.56 760.13 -321.56 759.13 C-321.23 758.47 -320.9 757.81 -320.56 757.13 C-319.56 755.13 -319.56 755.13 -316.56 754.13 C-316.23 753.47 -315.9 752.81 -315.56 752.13 C-314.56 750.13 -314.56 750.13 -311.56 749.13 C-311.56 748.47 -311.56 747.81 -311.56 747.13 C-310.18 745.51 -310.18 745.51 -308.56 744.13 C-307.9 744.13 -307.24 744.13 -306.56 744.13 C-306.56 743.47 -306.56 742.81 -306.56 742.13 C-305.09 740.69 -305.09 740.69 -303.06 739.01 C-299.21 735.75 -295.7 732.29 -292.22 728.64 C-290.56 727.13 -290.56 727.13 -288.56 727.13 C-288.16 726.17 -288.16 726.17 -287.75 725.2 C-286.56 723.13 -286.56 723.13 -283.56 722.13 C-283.23 721.47 -282.9 720.81 -282.56 720.13 C-281.56 718.13 -281.56 718.13 -278.56 717.13 C-278.23 716.47 -277.9 715.81 -277.56 715.13 C-276.56 713.13 -276.56 713.13 -273.56 712.13 C-272.87 710.81 -272.2 709.48 -271.56 708.13 C-269.87 706.28 -269.87 706.28 -268 704.51 C-265.42 702.09 -265.42 702.09 -263.56 699.13 C-262.9 699.13 -262.24 699.13 -261.56 699.13 C-261.33 698.59 -261.11 698.05 -260.88 697.49 C-259.15 694.4 -256.91 692.09 -254.5 689.51 C-251.14 686.09 -251.14 686.09 -248.56 682.13 C-247.9 682.13 -247.24 682.13 -246.56 682.13 C-246.19 681.33 -246.19 681.33 -245.81 680.51 C-244.25 677.55 -242.53 674.84 -240.56 672.13 C-239.9 672.13 -239.24 672.13 -238.56 672.13 C-238.31 671.59 -238.06 671.05 -237.81 670.49 C-236.28 667.61 -234.47 665.04 -232.56 662.38 C-231.51 660.91 -231.51 660.91 -230.43 659.4 C-229.51 658.28 -229.51 658.28 -228.56 657.13 C-227.9 657.13 -227.24 657.13 -226.56 657.13 C-221.14 647.6 -222.06 634.39 -221.5 623.63 C-221.38 621.49 -221.26 619.35 -221.14 617.2 C-221.03 615.28 -220.93 613.36 -220.82 611.43 C-220.59 608.57 -220.13 605.94 -219.56 603.13 C-219.2 598.72 -219.05 594.3 -218.87 589.88 C-218.78 588.1 -218.78 588.1 -218.69 586.28 C-218.42 579.5 -218.72 573.65 -220.56 567.13 C-220.89 565.73 -221.21 564.33 -221.52 562.92 C-223.42 549.57 -223.42 549.57 -228.56 538.13 C-228.68 537.14 -228.81 536.15 -228.93 535.13 C-229.41 531.54 -230.42 528.36 -231.62 524.95 C-232.81 521.39 -233.84 517.8 -234.87 514.2 C-236.87 507.29 -239.08 500.48 -241.39 493.67 C-242.96 489.02 -244.38 484.36 -245.68 479.63 C-247.03 474.81 -248.62 470.25 -250.56 465.64 C-251.7 462.78 -252.67 459.88 -253.62 456.95 C-254.66 453.77 -255.72 450.76 -257.06 447.7 C-258.45 444.4 -259.48 441.18 -260.5 437.76 C-261.86 433.23 -263.42 429.04 -265.43 424.78 C-267.29 420.42 -268.77 415.92 -270.28 411.42 C-271.74 407.13 -273.5 403.19 -275.57 399.16 C-277.26 395.7 -278.49 392.09 -279.75 388.45 C-280.01 387.71 -280.27 386.98 -280.53 386.23 C-283.23 378.5 -284.09 373.77 -280.56 366.13 C-278.64 363.25 -276.72 360.71 -273.56 359.13 C-274.16 354.93 -275.19 351.14 -276.56 347.13 C-276.56 346.47 -276.56 345.81 -276.56 345.13 C-277.22 345.13 -277.88 345.13 -278.56 345.13 C-278.75 343.68 -278.75 343.68 -278.93 342.2 C-279.14 341.19 -279.35 340.17 -279.56 339.13 C-280.22 338.8 -280.88 338.47 -281.56 338.13 C-284.05 333.72 -285.81 329.04 -287.59 324.31 C-288.47 321.98 -288.47 321.98 -290.56 320.13 C-290.23 319.47 -289.9 318.81 -289.56 318.13 C-290.55 317.8 -291.54 317.47 -292.56 317.13 C-292.89 317.46 -293.22 317.79 -293.56 318.13 C-300.38 318.99 -305.81 318.4 -311.64 314.66 C-317.7 309.85 -320.47 302.52 -323.78 295.72 C-325.84 291.5 -328.15 287.42 -330.49 283.34 C-331.56 281.13 -331.56 281.13 -331.56 278.13 C-332.22 278.13 -332.88 278.13 -333.56 278.13 C-333.89 277.43 -334.22 276.73 -334.56 276 C-337.98 268.89 -341.84 262.4 -346.22 255.85 C-348.09 252.97 -349.74 250 -351.36 246.97 C-354.72 240.74 -358.42 234.75 -362.18 228.76 C-363.17 227.18 -363.17 227.18 -364.17 225.57 C-364.81 224.55 -365.44 223.53 -366.1 222.49 C-366.67 221.58 -367.24 220.67 -367.82 219.73 C-369.6 217.07 -371.56 214.63 -373.56 212.13 C-374.53 210.46 -375.49 208.78 -376.42 207.08 C-377.71 204.87 -379.16 202.8 -380.62 200.7 C-387.81 190.01 -388.97 177.64 -386.87 165.07 C-385.41 158.5 -382.27 152.7 -378.56 147.13 C-377.9 147.13 -377.24 147.13 -376.56 147.13 C-376.23 146.14 -375.9 145.15 -375.56 144.13 C-374.9 144.13 -374.24 144.13 -373.56 144.13 C-373.56 143.47 -373.56 142.81 -373.56 142.13 C-372.9 142.13 -372.24 142.13 -371.56 142.13 C-371.56 141.47 -371.56 140.81 -371.56 140.13 C-369.51 138.7 -369.51 138.7 -366.81 137.13 C-365.93 136.62 -365.05 136.1 -364.14 135.57 C-354.51 130.2 -345.65 129.83 -334.72 129.87 C-333.38 129.87 -332.04 129.86 -330.71 129.86 C-327.91 129.86 -325.12 129.86 -322.33 129.87 C-318.8 129.88 -315.27 129.88 -311.74 129.87 C-297.58 129.83 -283.57 129.83 -269.56 132.13 C-269.69 131.5 -269.83 130.87 -269.96 130.22 C-270.52 127.53 -271.04 124.83 -271.56 122.13 C-271.75 121.19 -271.94 120.25 -272.14 119.28 C-275.52 100.62 -274.92 83.71 -263.96 67.82 C-254.93 55.66 -242.7 47.47 -227.56 45.13 C-223.27 44.85 -218.99 44.85 -214.69 44.86 C-213.43 44.85 -212.16 44.85 -210.86 44.84 C-207.43 44.83 -203.99 44.83 -200.56 44.83 C-197.68 44.83 -194.8 44.83 -191.92 44.82 C-185.12 44.81 -178.32 44.81 -171.52 44.82 C-164.53 44.82 -157.54 44.81 -150.55 44.79 C-144.52 44.77 -138.5 44.77 -132.47 44.77 C-128.88 44.77 -125.3 44.77 -121.71 44.76 C-117.7 44.74 -113.7 44.75 -109.69 44.76 C-108.52 44.75 -107.35 44.75 -106.14 44.74 C-99.68 44.78 -94.05 45.5 -87.86 47.42 C-85.13 48.27 -82.39 48.75 -79.56 49.13 C-78.96 48.21 -78.96 48.21 -78.35 47.27 C-77.82 46.46 -77.29 45.65 -76.75 44.82 C-76.23 44.02 -75.7 43.22 -75.17 42.4 C-73.74 40.39 -72.43 38.72 -70.56 37.13 C-69.9 37.13 -69.24 37.13 -68.56 37.13 C-68.29 36.49 -68.02 35.85 -67.75 35.2 C-66.56 33.13 -66.56 33.13 -63.56 32.13 C-63.23 31.14 -62.9 30.15 -62.56 29.13 C-61.9 29.13 -61.24 29.13 -60.56 29.13 C-60.56 28.47 -60.56 27.81 -60.56 27.13 C-59.1 25.84 -59.1 25.84 -57.18 24.51 C-56.56 24.06 -55.93 23.62 -55.29 23.16 C-53.56 22.13 -53.56 22.13 -51.56 22.13 C-51.56 21.47 -51.56 20.81 -51.56 20.13 C-38.15 10.62 -23.62 4.33 -7.39 1.53 C-0.31 0 -0.31 0 0 0 Z M76.44 1092.13 C77.44 1095.13 77.44 1095.13 77.44 1095.13 Z " fill="#000100" transform="translate(785.5596160888672,-0.1337127685546875)"/>
<path d="M0 0 C2.63 1.03 3.72 2.56 5.48 4.75 C10.1 10.15 15.3 14.43 20.92 18.75 C21.78 19.42 22.65 20.09 23.54 20.78 C50.26 40.83 80.49 51.21 113.92 51.13 C114.74 51.13 115.56 51.13 116.4 51.12 C128.99 51.08 140.8 50.38 152.92 46.75 C153.77 46.51 154.61 46.27 155.49 46.02 C181.06 38.64 202.82 25.34 220.85 5.64 C221.55 4.89 222.26 4.15 222.98 3.38 C223.63 2.67 224.28 1.96 224.95 1.23 C226.92 -0.25 226.92 -0.25 228.81 -0.03 C236.25 2.72 242.47 11.21 247.91 16.76 C249.62 18.48 251.33 20.21 253.04 21.94 C255.7 24.63 258.36 27.32 261.01 30.02 C263.6 32.65 266.19 35.26 268.79 37.88 C269.57 38.68 270.35 39.48 271.16 40.31 C277.55 46.73 284.62 53.8 294.17 54 C297.42 53.99 299.73 53.6 302.67 52.19 C305.92 50.75 305.92 50.75 308.67 50.75 C311.71 52.1 312.39 53.84 313.92 56.75 C315.57 58.6 316.7 59.64 318.92 60.75 C319.36 61.51 319.81 62.27 320.27 63.05 C321.99 65.87 323.82 67.75 326.23 70 C330.05 73.7 332.92 77.44 335.63 82 C336.89 84.06 336.89 84.06 339.92 84.75 C341.26 84.44 342.59 84.11 343.92 83.75 C351.24 83.07 357.33 82.86 363.39 87.38 C365.25 89.05 366.74 90.54 367.92 92.75 C367.92 93.74 367.92 94.73 367.92 95.75 C368.58 95.75 369.24 95.75 369.92 95.75 C374.78 102.54 378.72 110.02 382.35 117.53 C383.5 119.9 384.68 122.23 385.89 124.57 C390.32 133.13 393.85 141.6 396.92 150.75 C397.45 152.13 397.99 153.51 398.54 154.88 C406.58 176.26 409.56 206.38 403.92 228.75 C403.77 230.85 403.64 232.96 403.54 235.06 C402.32 253.25 397.67 273.8 389.95 290.41 C388.82 292.96 387.9 295.55 386.98 298.19 C385.35 302.75 383.42 307 381.19 311.29 C380.35 312.91 379.55 314.54 378.77 316.18 C374.13 325.94 368.78 335.32 359.92 341.75 C356.74 342.81 354.38 342.92 351.04 342.94 C350.01 342.95 348.98 342.97 347.92 342.98 C344.86 342.75 342.68 342.04 339.92 340.75 C339.92 339.43 339.92 338.11 339.92 336.75 C339.59 337.08 339.26 337.41 338.92 337.75 C339.01 338.93 339.01 338.93 339.1 340.13 C338.92 342.75 338.92 342.75 336.92 344.56 C336.26 344.96 335.6 345.35 334.92 345.75 C334.92 345.09 334.92 344.43 334.92 343.75 C333.93 344.41 332.94 345.07 331.92 345.75 C332.58 346.41 333.24 347.07 333.92 347.75 C332.6 348.74 331.28 349.73 329.92 350.75 C329.92 350.09 329.92 349.43 329.92 348.75 C328.93 348.75 327.94 348.75 326.92 348.75 C327.58 350.07 328.24 351.39 328.92 352.75 C327.6 353.74 326.28 354.73 324.92 355.75 C324.92 355.09 324.92 354.43 324.92 353.75 C323.93 353.75 322.94 353.75 321.92 353.75 C321.92 354.74 321.92 355.73 321.92 356.75 C322.58 357.08 323.24 357.41 323.92 357.75 C322.6 358.74 321.28 359.73 319.92 360.75 C318.93 360.09 317.94 359.43 316.92 358.75 C316.92 359.74 316.92 360.73 316.92 361.75 C317.58 362.08 318.24 362.41 318.92 362.75 C317.37 364.41 315.8 366.05 314.23 367.69 C313.36 368.61 312.49 369.52 311.59 370.47 C308.82 372.84 307.54 373.75 303.92 373.75 C301.71 372.57 301.71 372.57 299.54 370.88 C295.54 368.06 292.96 366.58 287.92 366.75 C281.46 368.19 276.24 371.07 270.79 374.75 C207.05 417.62 116.91 421.56 43.58 407.5 C3.55 399.3 -34.13 383.37 -66.08 357.75 C-66.66 357.29 -67.23 356.84 -67.82 356.37 C-109.33 322.96 -131.45 276.3 -137.87 223.83 C-139.67 206.12 -139.49 186.76 -134.08 169.75 C-133.68 168.32 -133.27 166.89 -132.87 165.46 C-124.93 138.48 -108.65 114.4 -91.08 92.75 C-90.34 91.82 -89.6 90.88 -88.83 89.92 C-84.22 84.19 -79.4 78.72 -74.42 73.31 C-72.42 71.12 -70.46 68.92 -68.52 66.69 C-61.01 58.07 -53.26 49.78 -45.17 41.71 C-44.14 40.68 -43.12 39.65 -42.1 38.63 C-39.97 36.5 -37.84 34.37 -35.71 32.25 C-32.99 29.54 -30.28 26.83 -27.58 24.11 C-25.47 22 -23.36 19.89 -21.25 17.78 C-20.25 16.79 -19.25 15.79 -18.25 14.78 C-15.22 11.75 -12.17 8.74 -9.08 5.75 C-8.4 5.09 -7.71 4.42 -7.01 3.73 C-2.63 -0.31 -2.63 -0.31 0 0 Z M336.92 338.75 C337.92 341.75 337.92 341.75 337.92 341.75 Z " fill="#C183FA" transform="translate(525.0831604003906,753.2481079101563)"/>
<path d="M0 0 C1.43 -0.01 1.43 -0.01 2.89 -0.01 C7.93 -0.03 12.97 -0.05 18 -0.06 C23.2 -0.07 28.39 -0.1 33.59 -0.14 C37.6 -0.17 41.61 -0.18 45.61 -0.18 C47.53 -0.19 49.45 -0.2 51.37 -0.22 C54.04 -0.24 56.71 -0.24 59.38 -0.23 C60.17 -0.24 60.96 -0.26 61.77 -0.27 C65.29 -0.24 67.33 -0.05 70.2 2.06 C72.49 5.35 72.33 7.31 71.72 11.24 C70.26 13.99 68.42 16.33 66.47 18.74 C62.79 23.43 59.6 28.02 56.72 33.24 C55.74 34.75 54.74 36.25 53.72 37.74 C51.64 40.82 49.71 43.93 47.9 47.18 C44.3 53.45 40.4 59.56 36.56 65.69 C33.38 70.8 30.3 75.85 27.71 81.28 C26.5 83.68 25.12 85.94 23.72 88.24 C21.6 91.72 19.68 95.2 17.9 98.87 C16.3 102.07 14.6 105.21 12.91 108.36 C10.17 113.45 7.53 118.56 4.97 123.74 C3.22 127.27 1.47 130.77 -0.53 134.18 C-2.4 137.45 -3.84 140.75 -5.28 144.24 C-7.94 150.37 -10.76 156.41 -13.59 162.46 C-25.58 188.04 -36.58 213.95 -46.76 240.3 C-48.17 243.96 -49.61 247.61 -51.05 251.26 C-59.1 271.83 -65.83 292.82 -72.52 313.87 C-73.2 315.99 -73.88 318.1 -74.57 320.22 C-99.24 396.28 -115.14 475.15 -125.33 554.37 C-126.49 563.36 -127.67 572.32 -129.28 581.24 C-130.49 580.43 -130.49 580.43 -131.72 579.61 C-132.27 579.25 -132.82 578.88 -133.39 578.51 C-134.71 577.62 -136.02 576.72 -137.33 575.81 C-146.76 569.33 -156.21 565.15 -167.28 562.24 C-168.68 561.84 -168.68 561.84 -170.11 561.44 C-185.37 557.95 -201.2 563.67 -215.28 569.24 C-216.51 564.98 -216.13 561.04 -215.75 556.68 C-215.64 555.37 -215.64 555.37 -215.54 554.03 C-215.29 551.1 -215.04 548.17 -214.78 545.24 C-214.69 544.21 -214.6 543.19 -214.51 542.14 C-205.58 439.72 -188.97 337.27 -119.28 109.24 C-118.85 108.19 -118.43 107.15 -117.99 106.07 C-83.71 22.2 -83.71 22.2 -52.2 7.4 C-48.48 5.92 -44.73 4.66 -40.91 3.49 C-39.9 3.17 -39.9 3.17 -38.87 2.85 C-26.38 -0.77 -12.88 0.05 0 0 Z " fill="#9FD964" transform="translate(820.28125,36.76171875)"/>
<path d="M0 0 C0 0.33 0 0.66 0 1 C10.89 1.49 10.89 1.49 22 2 C22 2.33 22 2.66 22 3 C20.68 3 19.36 3 18 3 C11.66 3.76 8.87 7.2 5 12 C4.28 12.88 3.55 13.76 2.8 14.66 C-11.75 33.66 -21.7 56.9 -31.46 78.59 C-32.94 81.88 -34.44 85.15 -35.95 88.43 C-49.39 117.9 -60.82 148.23 -71.27 178.88 C-72 181.01 -72.74 183.15 -73.47 185.28 C-103.45 272.73 -124.79 363.05 -151.38 511.81 C-151.48 512.49 -151.59 513.17 -151.71 513.86 C-154.93 533.62 -154.93 533.62 -157.63 553.45 C-158 556 -158 556 -159 559 C-160.76 559.22 -160.76 559.22 -162.56 559.45 C-173.99 561 -184.28 563.76 -195 568 C-196.23 563.74 -195.85 559.81 -195.47 555.44 C-195.36 554.13 -195.36 554.13 -195.25 552.79 C-195.01 549.86 -194.76 546.93 -194.5 544 C-194.41 542.98 -194.32 541.95 -194.23 540.9 C-185.3 438.48 -168.69 336.03 -99 108 C-98.57 106.95 -98.15 105.91 -97.71 104.83 C-63.4 20.9 -63.4 20.9 -31.92 6.16 C-21.44 1.99 -11.4 -0.99 0 0 Z " fill="#72BC4D" transform="translate(800,38)"/>
<path d="M0 0 C1.07 -0.01 2.14 -0.03 3.24 -0.04 C4.4 -0.05 5.57 -0.05 6.77 -0.06 C7.97 -0.07 9.17 -0.08 10.41 -0.09 C12.97 -0.1 15.53 -0.11 18.08 -0.12 C21.95 -0.14 25.81 -0.18 29.67 -0.22 C46.16 -0.33 60.75 0.46 75.76 7.93 C76.47 8.27 77.18 8.62 77.9 8.97 C117.86 29.11 134.88 90.33 149.89 129.18 C150.14 129.82 150.39 130.47 150.64 131.13 C152.36 135.57 154.04 140.03 155.7 144.49 C156.14 145.63 156.58 146.78 157.03 147.96 C157.42 149.04 157.81 150.12 158.22 151.23 C158.74 152.63 158.74 152.63 159.27 154.06 C160.64 161 158.59 168.2 157.14 175.02 C156.98 175.84 156.81 176.65 156.63 177.49 C156.1 180.08 155.55 182.66 155.01 185.24 C154.3 188.63 153.6 192.01 152.89 195.4 C152.72 196.22 152.55 197.04 152.37 197.89 C150.97 204.67 149.7 211.46 148.5 218.28 C147.89 221.18 147.89 221.18 146.89 222.18 C146.69 223.5 146.54 224.82 146.42 226.15 C145.92 231.01 145.2 235.8 144.39 240.61 C144.19 241.82 144.19 241.82 143.99 243.04 C143.01 248.93 143.01 248.93 141.89 251.18 C141.68 253.37 141.47 255.57 141.27 257.77 C140.76 262.26 140.09 266.71 139.39 271.18 C139.19 272.45 139.19 272.45 138.99 273.75 C138.86 274.55 138.74 275.35 138.6 276.18 C138.43 277.26 138.43 277.26 138.26 278.36 C137.89 280.18 137.89 280.18 136.89 282.18 C136.7 283.71 136.56 285.26 136.45 286.8 C135.83 294.29 134.85 301.73 133.89 309.18 C131.01 305.82 129.66 302.23 128.28 298.1 C128.03 297.39 127.79 296.69 127.54 295.96 C127.01 294.42 126.49 292.89 125.96 291.35 C124.54 287.17 123.08 282.99 121.62 278.82 C121.32 277.95 121.02 277.07 120.7 276.18 C113.33 255.11 105.46 234.18 97.08 213.48 C96.35 211.68 95.63 209.87 94.92 208.07 C92.17 201.41 89.35 194.82 82.92 191.01 C79.83 189.74 76.95 189.99 73.64 190.05 C72.37 190.07 71.11 190.09 69.81 190.11 C68.84 190.13 67.88 190.15 66.89 190.18 C64.14 185.75 62.4 182.46 61.89 177.18 C61.23 177.18 60.57 177.18 59.89 177.18 C59.76 176.21 59.64 175.24 59.51 174.24 C59.2 172.72 59.2 172.72 58.89 171.18 C58.23 170.85 57.57 170.52 56.89 170.18 C54.4 165.76 52.64 161.08 50.85 156.35 C49.97 154.03 49.97 154.03 47.89 152.18 C48.22 151.52 48.55 150.86 48.89 150.18 C48.23 149.85 47.57 149.52 46.89 149.18 C48.54 146.22 50.31 143.61 52.51 141.05 C55.89 136.96 56.48 133.45 56.41 128.28 C55.38 122.17 52.09 116.87 49.14 111.49 C47.83 109.08 46.58 106.65 45.33 104.22 C32.8 79.83 18.9 56.12 3.68 33.32 C3.24 32.67 2.8 32.01 2.35 31.34 C0.23 28.14 -1.92 24.95 -4.08 21.78 C-4.86 20.62 -5.64 19.45 -6.42 18.29 C-7.11 17.28 -7.8 16.26 -8.51 15.22 C-10.33 11.77 -10.93 9.07 -11.11 5.18 C-7.82 0.86 -5.24 0.05 0 0 Z " fill="#548634" transform="translate(447.11376953125,167.822998046875)"/>
<path d="M0 0 C7.19 5.63 12.29 12.92 17.44 20.36 C21.25 25.84 25.45 31.02 29.61 36.25 C31 38 32.38 39.77 33.75 41.54 C39.14 48.46 44.67 55.23 50.37 61.9 C53.62 65.71 56.77 69.6 59.91 73.5 C62.43 76.52 65.11 79.36 67.88 82.15 C69 84 69 84 68.93 86.41 C63.76 100.79 42.79 112.96 29.68 119.36 C2.07 132.05 -28.15 132.17 -56.62 122.56 C-62.07 120.49 -67.05 118.07 -72 115 C-72.84 114.51 -73.67 114.02 -74.54 113.52 C-85.37 106.97 -98.06 97.75 -105 87 C-104.39 82.52 -101.53 79.82 -98.62 76.56 C-97.52 75.3 -96.42 74.04 -95.32 72.79 C-94.77 72.15 -94.21 71.52 -93.63 70.86 C-85.9 62.04 -78.5 52.97 -71.31 43.7 C-70.07 42.09 -68.83 40.49 -67.58 38.89 C-61.89 31.56 -56.37 24.12 -50.91 16.62 C-45.26 8.9 -40.78 3.19 -32 -1 C-31.37 -1.32 -30.74 -1.64 -30.1 -1.98 C-20.65 -6.25 -8.87 -5.09 0 0 Z " fill="#DAC3FC" transform="translate(657,639)"/>
<path d="M0 0 C1.8 -0 1.8 -0 3.64 -0 C6.91 0 10.19 0.02 13.46 0.05 C16.89 0.07 20.32 0.08 23.75 0.08 C30.23 0.09 36.72 0.13 43.2 0.17 C50.59 0.21 57.97 0.23 65.36 0.25 C80.54 0.29 95.73 0.36 110.91 0.45 C111.98 4.93 111.65 6.9 109.66 11.09 C109.14 12.21 108.63 13.32 108.09 14.47 C107.81 15.07 107.53 15.66 107.24 16.27 C105.69 19.53 104.2 22.82 102.71 26.1 C102.39 26.79 102.08 27.48 101.75 28.19 C80.52 74.72 63.69 123.95 50.91 173.45 C49.59 173.78 48.27 174.11 46.91 174.45 C46.47 173.47 46.02 172.48 45.56 171.47 C23.8 116.65 23.8 116.65 -14.11 73.42 C-18.18 70.01 -18.39 66.05 -18.95 60.99 C-19.07 60.08 -19.19 59.17 -19.32 58.23 C-19.7 55.33 -20.05 52.42 -20.4 49.52 C-20.65 47.57 -20.9 45.62 -21.16 43.67 C-21.63 40.08 -22.08 36.5 -22.52 32.91 C-22.95 29.41 -23.48 25.93 -24.09 22.45 C-24.78 16.12 -24.29 11.67 -20.86 6.24 C-14.58 -0.08 -8.48 -0.11 0 0 Z " fill="#548634" transform="translate(574.085693359375,82.5458984375)"/>
<path d="M0 0 C2.6 1.94 4.83 3.85 6.38 6.75 C6.38 7.74 6.38 8.73 6.38 9.75 C7.03 9.75 7.7 9.75 8.38 9.75 C13.24 16.54 17.18 24.02 20.81 31.53 C21.96 33.89 23.13 36.23 24.35 38.57 C28.78 47.13 32.3 55.6 35.38 64.75 C35.91 66.13 36.45 67.5 37 68.88 C45.04 90.26 48.02 120.37 42.38 142.75 C42.22 144.85 42.1 146.96 42 149.06 C40.78 167.25 36.12 187.8 28.41 204.41 C27.28 206.96 26.36 209.55 25.44 212.19 C23.81 216.75 21.88 221 19.65 225.29 C18.81 226.91 18 228.53 17.23 230.18 C12.59 239.94 7.24 249.32 -1.62 255.75 C-4.8 256.81 -7.17 256.92 -10.5 256.94 C-11.53 256.95 -12.56 256.97 -13.62 256.98 C-16.68 256.75 -18.86 256.04 -21.62 254.75 C-21.62 253.43 -21.62 252.11 -21.62 250.75 C-22.62 250.75 -23.61 250.75 -24.62 250.75 C-28.41 245.75 -30.12 241.74 -30.03 235.39 C-29.03 228.88 -25.06 223.15 -21.73 217.57 C0.25 180.61 10.5 128.84 0.19 86.71 C-4.66 68.17 -12.63 52.01 -22.62 35.75 C-23.79 33.81 -24.96 31.88 -26.12 29.94 C-26.57 29.21 -27.01 28.48 -27.47 27.73 C-30.49 22.56 -31.58 18.77 -30.62 12.75 C-28.55 7.64 -25.46 2.71 -21.62 -1.25 C-14.94 -3.57 -6.11 -3.7 0 0 Z " fill="#000100" transform="translate(886.625,839.25)"/>
<path d="M0 0 C6.86 0.63 13.41 1.88 20.12 3.38 C32.02 5.93 43.91 7.68 56 9 C57.03 9.12 57.03 9.12 58.08 9.24 C71.57 10.83 84.92 11.4 98.5 11.38 C100.02 11.37 100.02 11.37 101.57 11.37 C131.41 11.31 161.58 8.3 190.55 0.86 C193.55 0.11 195.93 -0.19 199 0 C201.73 7.81 203.36 14.82 203.38 23.06 C203.4 23.83 203.42 24.59 203.45 25.38 C203.48 32.07 201.62 36.14 197.04 41.14 C189.48 47.54 183.19 49.12 173.27 49.14 C172.62 49.14 171.97 49.15 171.3 49.15 C169.13 49.16 166.96 49.16 164.79 49.16 C163.23 49.17 161.67 49.17 160.11 49.18 C155.88 49.19 151.64 49.2 147.41 49.2 C144.77 49.2 142.12 49.21 139.47 49.21 C131.18 49.23 122.89 49.24 114.59 49.24 C105.04 49.24 95.49 49.26 85.93 49.29 C78.54 49.31 71.14 49.32 63.74 49.32 C59.33 49.32 54.92 49.33 50.51 49.35 C46.35 49.36 42.2 49.37 38.05 49.36 C36.53 49.36 35.01 49.36 33.49 49.37 C21.12 49.45 10.74 48.2 1 40 C-4.56 33.01 -5.87 26.73 -5 18 C-2.57 5.13 -2.57 5.13 0 0 Z " fill="#568738" transform="translate(540,1193)"/>
<path d="" fill="#DAC3FC" transform="translate(0,0)"/>
<path d="" fill="#000100" transform="translate(0,0)"/>
<path d="" fill="#DAC3FC" transform="translate(0,0)"/>
<path d="" fill="#000100" transform="translate(0,0)"/>
<path d="" fill="#DAC3FC" transform="translate(0,0)"/>
<path d="" fill="#000100" transform="translate(0,0)"/>
<path d="" fill="#DAC3FC" transform="translate(0,0)"/>
<path d="" fill="#000100" transform="translate(0,0)"/>
<path d="" fill="#000100" transform="translate(0,0)"/>
<path d="" fill="#DAC3FC" transform="translate(0,0)"/>
</svg>
